HIERARCHY
ROOT hip
{
  OFFSET 0 0 0
  CHANNELS 6 Xposition Yposition Zposition Zrotation Yrotation Xrotation
  JOINT abdomen
  {
    OFFSET 0 20.6881 -0.73152
    CHANNELS 3 Zrotation Xrotation Yrotation
    JOINT chest
    {
      OFFSET 0 11.7043 -0.48768
      CHANNELS 3 Zrotation Xrotation Yrotation
      JOINT neck
      {
        OFFSET 0 22.1894 -2.19456
        CHANNELS 3 Zrotation Xrotation Yrotation
        JOINT head
        {
          OFFSET -0.24384 7.07133 1.2192
          CHANNELS 3 Zrotation Xrotation Yrotation
          JOINT leftEye
          {
            OFFSET 4.14528 8.04674 8.04672
            CHANNELS 3 Zrotation Xrotation Yrotation
            End Site
            {
              OFFSET 1 0 0
            }
          }
          JOINT rightEye
          {
            OFFSET -3.6576 8.04674 8.04672
            CHANNELS 3 Zrotation Xrotation Yrotation
            End Site
            {
              OFFSET 1 0 0
            }
          }
        }
      }
      JOINT rCollar
      {
        OFFSET -2.68224 19.2634 -4.8768
        CHANNELS 3 Zrotation Xrotation Yrotation
        JOINT rShldr
        {
          OFFSET -8.77824 -1.95073 1.46304
          CHANNELS 3 Zrotation Xrotation Yrotation
          JOINT rForeArm
          {
            OFFSET -28.1742 -1.7115 0.48768
            CHANNELS 3 Zrotation Xrotation Yrotation
            JOINT rHand
            {
              OFFSET -22.5879 0.773209 7.07136
              CHANNELS 3 Zrotation Xrotation Yrotation
              JOINT rThumb1
              {
                OFFSET -1.2192 -0.487915 3.41376
                CHANNELS 3 Zrotation Xrotation Yrotation
                JOINT rThumb2
                {
                  OFFSET -3.37035 -0.52449 3.41376
                  CHANNELS 3 Zrotation Xrotation Yrotation
                  End Site
                  {
                    OFFSET -1.78271 -1.18214 1.43049
                  }
                }
              }
              JOINT rIndex1
              {
                OFFSET -7.75947 0.938293 5.60832
                CHANNELS 3 Zrotation Xrotation Yrotation
                JOINT rIndex2
                {
                  OFFSET -2.54057 -0.884171 1.56538
                  CHANNELS 3 Zrotation Xrotation Yrotation
                  End Site
                  {
                    OFFSET -1.62519 -0.234802 1.16502
                  }
                }
              }
              JOINT rMid1
              {
                OFFSET -8.24714 1.18213 3.41376
                CHANNELS 3 Zrotation Xrotation Yrotation
                JOINT rMid2
                {
                  OFFSET -3.10165 -0.590103 1.0647
                  CHANNELS 3 Zrotation Xrotation Yrotation
                  End Site
                  {
                    OFFSET -2.48547 -0.328903 0.83742
                  }
                }
              }
              JOINT rRing1
              {
                OFFSET -8.82822 0.546677 1.51678
                CHANNELS 3 Zrotation Xrotation Yrotation
                JOINT rRing2
                {
                  OFFSET -2.60934 -0.819778 -0.0198488
                  CHANNELS 3 Zrotation Xrotation Yrotation
                  End Site
                  {
                    OFFSET -2.33842 -0.294052 0.168128
                  }
                }
              }
              JOINT rPinky1
              {
                OFFSET -8.27202 -0.0477905 -0.4584
                CHANNELS 3 Zrotation Xrotation Yrotation
                JOINT rPinky2
                {
                  OFFSET -1.82734 -0.647385 -0.700984
                  CHANNELS 3 Zrotation Xrotation Yrotation
                  End Site
                  {
                    OFFSET -1.69225 -0.51767 -0.607171
                  }
                }
              }
            }
          }
        }
      }
      JOINT lCollar
      {
        OFFSET 2.68224 19.2634 -4.8768
        CHANNELS 3 Zrotation Xrotation Yrotation
        JOINT lShldr
        {
          OFFSET 8.77824 -1.95073 1.46304
          CHANNELS 3 Zrotation Xrotation Yrotation
          JOINT lForeArm
          {
            OFFSET 28.1742 -1.7115 0.48768
            CHANNELS 3 Zrotation Xrotation Yrotation
            JOINT lHand
            {
              OFFSET 22.5879 0.773209 7.07136
              CHANNELS 3 Zrotation Xrotation Yrotation
              JOINT lThumb1
              {
                OFFSET 1.2192 -0.487915 3.41376
                CHANNELS 3 Zrotation Xrotation Yrotation
                JOINT lThumb2
                {
                  OFFSET 3.37035 -0.52449 3.41376
                  CHANNELS 3 Zrotation Xrotation Yrotation
                  End Site
                  {
                    OFFSET 1.78271 -1.18214 1.43049
                  }
                }
              }
              JOINT lIndex1
              {
                OFFSET 7.75947 0.938293 5.60832
                CHANNELS 3 Zrotation Xrotation Yrotation
                JOINT lIndex2
                {
                  OFFSET 2.54057 -0.884171 1.56538
                  CHANNELS 3 Zrotation Xrotation Yrotation
                  End Site
                  {
                    OFFSET 1.62519 -0.234802 1.16502
                  }
                }
              }
              JOINT lMid1
              {
                OFFSET 8.24714 1.18213 3.41376
                CHANNELS 3 Zrotation Xrotation Yrotation
                JOINT lMid2
                {
                  OFFSET 3.10165 -0.590103 1.0647
                  CHANNELS 3 Zrotation Xrotation Yrotation
                  End Site
                  {
                    OFFSET 2.48547 -0.328903 0.83742
                  }
                }
              }
              JOINT lRing1
              {
                OFFSET 8.82822 0.546677 1.51678
                CHANNELS 3 Zrotation Xrotation Yrotation
                JOINT lRing2
                {
                  OFFSET 2.60934 -0.819778 -0.0198488
                  CHANNELS 3 Zrotation Xrotation Yrotation
                  End Site
                  {
                    OFFSET 2.33842 -0.294052 0.168128
                  }
                }
              }
              JOINT lPinky1
              {
                OFFSET 8.27202 -0.0477905 -0.4584
                CHANNELS 3 Zrotation Xrotation Yrotation
                JOINT lPinky2
                {
                  OFFSET 1.82734 -0.647385 -0.700984
                  CHANNELS 3 Zrotation Xrotation Yrotation
                  End Site
                  {
                    OFFSET 1.69225 -0.51767 -0.607171
                  }
                }
              }
            }
          }
        }
      }
    }
  }
  JOINT rButtock
  {
    OFFSET -8.77824 4.35084 1.2192
    CHANNELS 3 Zrotation Xrotation Yrotation
    JOINT rThigh
    {
      OFFSET 0 -1.70687 -2.19456
      CHANNELS 3 Zrotation Xrotation Yrotation
      JOINT rShin
      {
        OFFSET 0 -36.8199 0.73152
        CHANNELS 3 Zrotation Xrotation Yrotation
        JOINT rFoot
        {
          OFFSET 0.73152 -45.1104 -5.12064
          CHANNELS 3 Zrotation Xrotation Yrotation
          End Site
          {
            OFFSET -1.1221 -3.69964 12.103
          }
        }
      }
    }
  }
  JOINT lButtock
  {
    OFFSET 8.77824 4.35084 1.2192
    CHANNELS 3 Zrotation Xrotation Yrotation
    JOINT lThigh
    {
      OFFSET 0 -1.70687 -2.19456
      CHANNELS 3 Zrotation Xrotation Yrotation
      JOINT lShin
      {
        OFFSET 0 -36.8199 0.73152
        CHANNELS 3 Zrotation Xrotation Yrotation
        JOINT lFoot
        {
          OFFSET -0.73152 -45.1104 -5.12064
          CHANNELS 3 Zrotation Xrotation Yrotation
          End Site
          {
            OFFSET 1.1221 -3.69964 12.103
          }
        }
      }
    }
  }
}
MOTION
Frames:	4
Frame Time:	0.03333
-0.562657003282193 -0.1517612004681298 -1.3420631229638649 -89.64680480957031 20.839590072631836 -117.7008056640625 -49.08591079711914 39.710636138916016 -133.6464385986328 51.82109832763672 60.09749221801758 83.0211181640625 -137.7591094970703 30.27104949951172 -116.12049865722656 114.65264892578125 -15.931078910827637 45.188690185546875 1.190712571144104 -18.045061111450195 -110.37694549560547 44.67666244506836 15.197792053222656 143.06503295898438 -21.301942825317383 -17.237504959106445 27.1009464263916 58.88986587524414 4.562624931335449 -46.79313659667969 38.049400329589844 -55.5037841796875 111.23090362548828 -44.615966796875 6.788010120391846 -36.429752349853516 124.5829086303711 -20.186294555664062 -63.610694885253906 -24.40644073486328 22.65564727783203 -121.063720703125 104.81372833251953 39.402915954589844 48.16788101196289 50.598575592041016 -35.15102005004883 45.334449768066406 62.42105484008789 40.02601623535156 124.2049560546875 -77.025634765625 15.281410217285156 86.32176971435547 28.305381774902344 73.90446472167969 83.38323211669922 1.1112021207809448 -66.58987426757812 -154.8592987060547 24.065523147583008 0.1255035400390625 -13.02783489227295 -87.02254486083984 -30.87957191467285 -97.9372787475586 -19.64303207397461 30.377859115600586 32.496334075927734 -61.38810729980469 35.646202087402344 -118.21749114990234 76.00736999511719 20.912094116210938 -42.6176872253418 32.32319641113281 48.54251480102539 -31.5885009765625 -18.995878219604492 -20.144500732421875 -41.43458557128906 175.80264282226562 -44.34381103515625 -171.2444610595703 -127.27799224853516 55.2918586730957 85.70863342285156 0.3932708203792572 7.1939921379089355 -38.12279510498047 -32.14501190185547 23.61164093017578 86.83818817138672 62.7927131652832 16.426193237304688 -71.01872253417969 -178.52908325195312 5.421323776245117 57.91017150878906 -54.02999496459961 10.750295639038086 -170.9454803466797 144.60205078125 -38.4156494140625 -92.77386474609375 -74.5804443359375 19.44659996032715 -22.465044021606445 147.07098388671875 -64.57981872558594 134.3599090576172 5.451879501342773 -43.717227935791016 -28.00088882446289 -36.38285827636719 32.43286895751953 36.616416931152344 -24.879230499267578 46.46488952636719 -124.52188873291016 -177.22267150878906 -47.04216003417969 -62.663089752197266 -30.713314056396484 20.158384323120117 36.138465881347656 -9.052617073059082 -7.988532066345215 39.486053466796875 69.46812438964844 52.06597137451172 -45.65023422241211
-1.5424186114165497 0.16799917480704177 -3.3802156904011764 -102.81365966796875 -1.4199813604354858 -94.61380004882812 -65.3838119506836 -6.502975940704346 -144.21322631835938 52.43796920776367 42.231590270996094 73.03795623779297 -153.001708984375 -21.118274688720703 -155.62078857421875 92.55408477783203 -37.516197204589844 35.42128372192383 2.0799734592437744 -10.74592113494873 -73.97244262695312 40.44008255004883 0.3915519714355469 -5.128389835357666 -17.322837829589844 -11.940022468566895 17.443336486816406 64.4557876586914 19.55099868774414 -27.913639068603516 7.59171724319458 -40.51371765136719 81.56079864501953 -45.64991760253906 -34.796478271484375 -53.76029586791992 103.29461669921875 20.025312423706055 -50.37981414794922 -23.53790855407715 -20.113906860351562 -56.5539436340332 72.33950805664062 5.450067520141602 56.6174201965332 37.014244079589844 -25.950912475585938 26.075298309326172 85.16429138183594 19.313066482543945 127.64656066894531 -62.08232498168945 21.316726684570312 54.84419631958008 14.529190063476562 56.17906188964844 63.99256896972656 69.52855682373047 -22.227819442749023 -46.370750427246094 16.309663772583008 0.9178094267845154 -9.553041458129883 -82.82754516601562 -56.64362716674805 -86.95136260986328 -12.906473159790039 23.040374755859375 22.337007522583008 -67.7649917602539 36.7611198425293 -89.36846160888672 57.68891525268555 9.671631813049316 -35.53440856933594 16.553457260131836 31.499391555786133 -10.157275199890137 -13.330703735351562 -17.995521545410156 -32.4119987487793 61.47649383544922 -87.19013214111328 68.0428237915039 -17.720170974731445 39.62827682495117 -9.451329231262207 -2.1396546363830566 11.010804176330566 -28.814542770385742 -22.069791793823242 9.375317573547363 56.90773391723633 33.46860885620117 11.275691986083984 -27.4151611328125 -167.41622924804688 37.285430908203125 90.36590576171875 -119.6962890625 4.596608638763428 -177.12281799316406 152.56175231933594 -22.783329010009766 -109.38048553466797 -55.833553314208984 9.619251251220703 -22.356006622314453 26.653425216674805 -69.66532135009766 15.324884414672852 -9.194306373596191 -40.663658142089844 -26.1104679107666 -33.1378288269043 44.55405807495117 35.063629150390625 -25.18596839904785 11.350090980529785 -78.62899017333984 -148.41171264648438 -76.8158950805664 -62.68452453613281 -18.63076400756836 -8.36457633972168 12.66450023651123 -3.436945915222168 23.909704208374023 30.701171875 43.29803466796875 49.185115814208984 -19.035329818725586
-4.5462924793756105 1.9589823506638129 -9.239522071313765 -24.552820205688477 -18.84016990661621 4.88913631439209 -13.537981033325195 3.7844700813293457 -3.7501351833343506 19.733001708984375 -5.580362319946289 25.160961151123047 -10.018228530883789 12.214242935180664 3.761014223098755 23.73818588256836 -36.6554069519043 -1.3472846746444702 -0.8210991621017456 -3.358550548553467 -19.36190414428711 7.428367614746094 4.230638027191162 -3.0237185955047607 -7.094305992126465 0.35173511505126953 3.6881790161132812 53.88637924194336 32.589054107666016 2.626030445098877 -14.334071159362793 -29.32938575744629 73.87910461425781 -13.859755516052246 -26.14893913269043 -9.841181755065918 12.16934585571289 14.749777793884277 0.20243868231773376 -8.462404251098633 -10.285922050476074 -6.299625873565674 12.571484565734863 -12.409469604492188 10.26849365234375 21.140302658081055 -5.509888648986816 2.950361967086792 11.905831336975098 -2.499070644378662 -3.650998592376709 -18.23963737487793 10.50093936920166 9.650360107421875 3.3812763690948486 11.309529304504395 13.173819541931152 10.370969772338867 8.82310962677002 0.4739367961883545 2.694460391998291 0.5567903518676758 -3.423111915588379 -2.0304489135742188 -19.535856246948242 -4.984275817871094 -6.796322345733643 10.970251083374023 10.370226860046387 -68.37664794921875 39.29721450805664 -38.2904167175293 34.91944122314453 -19.454980850219727 -47.4003791809082 7.541653633117676 -2.495176076889038 -0.8961113095283508 -6.366546630859375 -5.723374843597412 -12.948050498962402 -0.9313782453536987 -5.3250813484191895 2.9443631172180176 -5.973833084106445 4.457674503326416 -5.903600692749023 -5.773009300231934 5.741061687469482 -7.873892784118652 -10.196743965148926 -3.916189670562744 15.96843433380127 2.6779768466949463 2.7310380935668945 -7.8847336769104 -1.1241257190704346 -0.28338661789894104 -14.676360130310059 -18.18166160583496 -4.758153915405273 4.571846008300781 11.078743934631348 15.312308311462402 15.910513877868652 -18.243680953979492 3.3340282440185547 -8.895566940307617 2.033395290374756 -13.667074203491211 -4.547337532043457 -21.48708724975586 -37.68362808227539 -22.643728256225586 -15.275054931640625 56.82789993286133 16.40188980102539 -5.891613483428955 -16.560842514038086 -23.27546501159668 -6.680515766143799 -18.63414192199707 13.084906578063965 6.057952404022217 -32.185420989990234 7.534156322479248 -3.294607639312744 54.087547302246094 13.00535774230957 13.435020446777344 8.72342586517334 12.74625301361084
-12.180248919405352 5.806174339359059 -23.781372182222555 -6.35717248916626 -12.216816902160645 7.614975929260254 -4.7228569984436035 14.223404884338379 1.3012341260910034 8.380870819091797 -11.71019172668457 8.259537696838379 -8.093465805053711 17.169469833374023 1.9112366437911987 11.232427597045898 -28.42344856262207 -3.5610053539276123 -1.7153109312057495 -1.4160432815551758 -8.520766258239746 4.621466636657715 4.863279342651367 -0.7245705723762512 -3.225979804992676 2.622652292251587 -0.8055001497268677 49.004329681396484 35.38350296020508 11.661783218383789 -19.806631088256836 -26.898883819580078 72.68286895751953 -5.720852375030518 -14.254192352294922 -1.1253160238265991 4.143546104431152 6.356790065765381 -0.5778056383132935 -6.074875831604004 -2.064227342605591 -0.3623311519622803 3.521749258041382 -4.278794765472412 5.262347221374512 13.795154571533203 1.2261247634887695 -2.3976125717163086 4.151149749755859 3.057072401046753 -1.9556491374969482 -4.802480220794678 5.781988620758057 4.127621650695801 1.3139169216156006 3.9402616024017334 4.032077312469482 8.342794418334961 3.142303466796875 1.6745445728302002 -1.3378374576568604 0.406213641166687 -0.6098724603652954 3.4911625385284424 -4.012815952301025 -3.404473304748535 -4.128547668457031 4.983944892883301 4.769447326660156 -59.51298141479492 41.12482452392578 -31.114456176757812 25.409963607788086 -22.460529327392578 -60.61497116088867 4.621474266052246 -10.152174949645996 -0.32352200150489807 -3.0987632274627686 -0.023915773257613182 -5.042883396148682 -1.292974829673767 -1.4503253698349 1.1944531202316284 -3.792001962661743 1.5752054452896118 -2.842494010925293 -7.305660724639893 4.957034587860107 0.38654884696006775 -5.512153148651123 -3.267703056335449 5.842081069946289 -1.5354986190795898 0.4915289282798767 -4.655300617218018 0.819970965385437 -1.3307747840881348 -5.960752487182617 -12.769843101501465 -4.099914073944092 4.243781089782715 5.2980732917785645 1.8768386840820312 5.344328880310059 -4.562987804412842 1.9608399868011475 -4.604651927947998 -0.4873926043510437 -4.612405776977539 -3.0189690589904785 -24.000839233398438 -37.34592819213867 -21.998882293701172 -3.758664131164551 60.59394073486328 3.9351274967193604 -2.6415786743164062 -13.330355644226074 -13.391255378723145 -4.860073566436768 -9.352046012878418 3.473290205001831 20.958820343017578 -37.565250396728516 13.473101615905762 -3.9783682823181152 60.94453811645508 7.234785556793213 7.568439483642578 -6.590504169464111 15.031340599060059
